<svg width="61" height="61" viewBox="0 0 61 61" fill="none" xmlns="http://www.w3.org/2000/svg">
<path d="M54.2583 10.6383H49.6514V9.36255C49.6514 8.44621 49.2874 7.56739 48.6394 6.91944C47.9915 6.27149 47.1126 5.90747 46.1963 5.90747C45.28 5.90747 44.4011 6.27149 43.7532 6.91944C43.1052 7.56739 42.7412 8.44621 42.7412 9.36255V10.6383H18.2583V9.36255C18.2583 8.44621 17.8943 7.56739 17.2463 6.91944C16.5984 6.27149 15.7196 5.90747 14.8032 5.90747C13.8869 5.90747 13.0081 6.27149 12.3601 6.91944C11.7122 7.56739 11.3481 8.44621 11.3481 9.36255V10.6383H6.74121C6.52002 10.6383 6.3079 10.7262 6.15149 10.8826C5.99509 11.039 5.90723 11.2511 5.90723 11.4723V54.2585C5.90735 54.4797 5.99526 54.6918 6.15163 54.8481C6.30801 55.0045 6.52006 55.0924 6.74121 55.0925H54.2583C54.4794 55.0924 54.6915 55.0045 54.8479 54.8481C55.0043 54.6918 55.0922 54.4797 55.0923 54.2585V11.4723C55.0923 11.2511 55.0044 11.039 54.848 10.8826C54.6916 10.7262 54.4795 10.6383 54.2583 10.6383ZM44.4092 9.36255C44.4092 8.88858 44.5975 8.43402 44.9326 8.09887C45.2678 7.76372 45.7223 7.57544 46.1963 7.57544C46.6703 7.57544 47.1248 7.76372 47.46 8.09887C47.7951 8.43402 47.9834 8.88858 47.9834 9.36255V13.582C47.9834 14.056 47.7951 14.5106 47.46 14.8457C47.1248 15.1809 46.6703 15.3691 46.1963 15.3691C45.7223 15.3691 45.2678 15.1809 44.9326 14.8457C44.5975 14.5106 44.4092 14.056 44.4092 13.582V9.36255ZM13.0161 9.36255C13.0161 8.88858 13.2044 8.43402 13.5395 8.09887C13.8747 7.76372 14.3292 7.57544 14.8032 7.57544C15.2772 7.57544 15.7317 7.76372 16.0669 8.09887C16.402 8.43402 16.5903 8.88858 16.5903 9.36255V13.582C16.5903 14.056 16.402 14.5106 16.0669 14.8457C15.7317 15.1809 15.2772 15.3691 14.8032 15.3691C14.3292 15.3691 13.8747 15.1809 13.5395 14.8457C13.2044 14.5106 13.0161 14.056 13.0161 13.582V9.36255ZM11.3481 12.3063V13.582C11.3481 14.4984 11.7122 15.3772 12.3601 16.0251C13.0081 16.6731 13.8869 17.0371 14.8032 17.0371C15.7196 17.0371 16.5984 16.6731 17.2463 16.0251C17.8943 15.3772 18.2583 14.4984 18.2583 13.582V12.3063H42.7412V13.582C42.7412 14.4984 43.1052 15.3772 43.7532 16.0251C44.4011 16.6731 45.28 17.0371 46.1963 17.0371C47.1126 17.0371 47.9915 16.6731 48.6394 16.0251C49.2874 15.3772 49.6514 14.4984 49.6514 13.582V12.3063H53.4224V21.0641H7.5771V12.3063H11.3481ZM7.5771 53.4227V22.732H53.4224V53.4227H7.5771Z" fill="white"/>
<path d="M19.1581 26.6875H15.002C14.8924 26.6874 14.7839 26.709 14.6827 26.7509C14.5815 26.7927 14.4896 26.8542 14.4121 26.9316C14.3346 27.0091 14.2732 27.101 14.2313 27.2023C14.1894 27.3035 14.1679 27.4119 14.168 27.5215V31.6766C14.1679 31.7862 14.1894 31.8946 14.2313 31.9959C14.2732 32.0971 14.3346 32.189 14.4121 32.2665C14.4896 32.3439 14.5815 32.4054 14.6827 32.4473C14.7839 32.4892 14.8924 32.5107 15.002 32.5106H19.1581C19.2676 32.5107 19.3761 32.4892 19.4773 32.4473C19.5785 32.4054 19.6705 32.3439 19.7479 32.2665C19.8254 32.189 19.8868 32.0971 19.9287 31.9959C19.9706 31.8946 19.9921 31.7862 19.992 31.6766V27.5215C19.9921 27.4119 19.9706 27.3035 19.9287 27.2023C19.8868 27.101 19.8254 27.0091 19.7479 26.9316C19.6705 26.8542 19.5785 26.7927 19.4773 26.7509C19.3761 26.709 19.2676 26.6874 19.1581 26.6875ZM18.3241 30.8426H15.8359V28.3555H18.3226L18.3241 30.8426Z" fill="white"/>
<path d="M28.1039 26.6875H23.9487C23.7275 26.6875 23.5154 26.7754 23.359 26.9318C23.2026 27.0882 23.1147 27.3003 23.1147 27.5215V31.6766C23.1147 31.8978 23.2026 32.1099 23.359 32.2663C23.5154 32.4228 23.7275 32.5106 23.9487 32.5106H28.1039C28.3251 32.5106 28.5372 32.4228 28.6936 32.2663C28.85 32.1099 28.9379 31.8978 28.9379 31.6766V27.5215C28.9379 27.3003 28.85 27.0882 28.6936 26.9318C28.5372 26.7754 28.3251 26.6875 28.1039 26.6875ZM27.2699 30.8426H24.7813V28.3555H27.2685L27.2699 30.8426Z" fill="white"/>
<path d="M37.0511 26.6875H32.896C32.6748 26.6875 32.4627 26.7754 32.3063 26.9318C32.1499 27.0882 32.062 27.3003 32.062 27.5215V31.6766C32.062 31.8978 32.1499 32.1099 32.3063 32.2663C32.4627 32.4228 32.6748 32.5106 32.896 32.5106H37.0511C37.1607 32.5107 37.2692 32.4892 37.3704 32.4473C37.4716 32.4054 37.5635 32.3439 37.641 32.2665C37.7185 32.189 37.7799 32.0971 37.8218 31.9959C37.8637 31.8946 37.8852 31.7862 37.8851 31.6766V27.5215C37.8852 27.4119 37.8637 27.3035 37.8218 27.2023C37.7799 27.101 37.7185 27.0091 37.641 26.9316C37.5635 26.8542 37.4716 26.7927 37.3704 26.7509C37.2692 26.709 37.1607 26.6874 37.0511 26.6875ZM36.2186 30.8426H33.73V28.3555H36.2186V30.8426Z" fill="white"/>
<path d="M45.9984 26.6875H41.8423C41.7327 26.6874 41.6243 26.709 41.5231 26.7509C41.4218 26.7927 41.3299 26.8542 41.2524 26.9316C41.175 27.0091 41.1135 27.101 41.0717 27.2023C41.0298 27.3035 41.0082 27.4119 41.0083 27.5215V31.6766C41.0082 31.7862 41.0298 31.8946 41.0717 31.9959C41.1135 32.0971 41.175 32.189 41.2524 32.2665C41.3299 32.3439 41.4218 32.4054 41.5231 32.4473C41.6243 32.4892 41.7327 32.5107 41.8423 32.5106H45.997C46.1065 32.5107 46.215 32.4892 46.3162 32.4473C46.4174 32.4054 46.5094 32.3439 46.5868 32.2665C46.6643 32.189 46.7257 32.0971 46.7676 31.9959C46.8095 31.8946 46.831 31.7862 46.8309 31.6766V27.5215C46.8311 27.3005 46.7434 27.0885 46.5873 26.9321C46.4312 26.7757 46.2194 26.6878 45.9984 26.6875ZM45.1644 30.8426H42.6777V28.3555H45.1644V30.8426Z" fill="white"/>
<path d="M19.1581 35.2656H15.002C14.8924 35.2656 14.7839 35.2871 14.6827 35.329C14.5815 35.3709 14.4896 35.4323 14.4121 35.5098C14.3346 35.5872 14.2732 35.6792 14.2313 35.7804C14.1894 35.8816 14.1679 35.9901 14.168 36.0996V40.2548C14.1679 40.3643 14.1894 40.4728 14.2313 40.574C14.2732 40.6752 14.3346 40.7672 14.4121 40.8446C14.4896 40.9221 14.5815 40.9835 14.6827 41.0254C14.7839 41.0673 14.8924 41.0888 15.002 41.0887H19.1581C19.2676 41.0888 19.3761 41.0673 19.4773 41.0254C19.5785 40.9835 19.6705 40.9221 19.7479 40.8446C19.8254 40.7672 19.8868 40.6752 19.9287 40.574C19.9706 40.4728 19.9921 40.3643 19.992 40.2548V36.0996C19.9921 35.9901 19.9706 35.8816 19.9287 35.7804C19.8868 35.6792 19.8254 35.5872 19.7479 35.5098C19.6705 35.4323 19.5785 35.3709 19.4773 35.329C19.3761 35.2871 19.2676 35.2656 19.1581 35.2656ZM18.3241 39.4208H15.8359V36.9336H18.3226L18.3241 39.4208Z" fill="white"/>
<path d="M28.1039 35.2656H23.9487C23.7275 35.2656 23.5154 35.3535 23.359 35.5099C23.2026 35.6663 23.1147 35.8784 23.1147 36.0996V40.2548C23.1147 40.4759 23.2026 40.6881 23.359 40.8445C23.5154 41.0009 23.7275 41.0887 23.9487 41.0887H28.1039C28.3251 41.0887 28.5372 41.0009 28.6936 40.8445C28.85 40.6881 28.9379 40.4759 28.9379 40.2548V36.0996C28.9379 35.8784 28.85 35.6663 28.6936 35.5099C28.5372 35.3535 28.3251 35.2656 28.1039 35.2656ZM27.2699 39.4208H24.7813V36.9336H27.2685L27.2699 39.4208Z" fill="white"/>
<path d="M37.0511 35.2656H32.896C32.6748 35.2656 32.4627 35.3535 32.3063 35.5099C32.1499 35.6663 32.062 35.8784 32.062 36.0996V40.2548C32.062 40.4759 32.1499 40.6881 32.3063 40.8445C32.4627 41.0009 32.6748 41.0887 32.896 41.0887H37.0511C37.1607 41.0888 37.2692 41.0673 37.3704 41.0254C37.4716 40.9835 37.5635 40.9221 37.641 40.8446C37.7185 40.7672 37.7799 40.6752 37.8218 40.574C37.8637 40.4728 37.8852 40.3643 37.8851 40.2548V36.0996C37.8852 35.9901 37.8637 35.8816 37.8218 35.7804C37.7799 35.6792 37.7185 35.5872 37.641 35.5098C37.5635 35.4323 37.4716 35.3709 37.3704 35.329C37.2692 35.2871 37.1607 35.2656 37.0511 35.2656ZM36.2186 39.4208H33.73V36.9336H36.2186V39.4208Z" fill="white"/>
<path d="M45.9984 35.2656H41.8423C41.7327 35.2656 41.6243 35.2871 41.5231 35.329C41.4218 35.3709 41.3299 35.4323 41.2524 35.5098C41.175 35.5872 41.1135 35.6792 41.0717 35.7804C41.0298 35.8816 41.0082 35.9901 41.0083 36.0996V40.2548C41.0082 40.3643 41.0298 40.4728 41.0717 40.574C41.1135 40.6752 41.175 40.7672 41.2524 40.8446C41.3299 40.9221 41.4218 40.9835 41.5231 41.0254C41.6243 41.0673 41.7327 41.0888 41.8423 41.0887H45.997C46.1065 41.0888 46.215 41.0673 46.3162 41.0254C46.4174 40.9835 46.5094 40.9221 46.5868 40.8446C46.6643 40.7672 46.7257 40.6752 46.7676 40.574C46.8095 40.4728 46.831 40.3643 46.8309 40.2548V36.0996C46.8311 35.8786 46.7434 35.6666 46.5873 35.5103C46.4312 35.3539 46.2194 35.2659 45.9984 35.2656ZM45.1644 39.4208H42.6777V36.9336H45.1644V39.4208Z" fill="white"/>
<path d="M19.1581 43.8438H15.002C14.8924 43.8437 14.7839 43.8652 14.6827 43.9071C14.5815 43.949 14.4896 44.0104 14.4121 44.0879C14.3346 44.1653 14.2732 44.2573 14.2313 44.3585C14.1894 44.4597 14.1679 44.5682 14.168 44.6777V48.8329C14.1679 48.9424 14.1894 49.0509 14.2313 49.1521C14.2732 49.2533 14.3346 49.3453 14.4121 49.4227C14.4896 49.5002 14.5815 49.5616 14.6827 49.6035C14.7839 49.6454 14.8924 49.6669 15.002 49.6669H19.1581C19.2676 49.6669 19.3761 49.6454 19.4773 49.6035C19.5785 49.5616 19.6705 49.5002 19.7479 49.4227C19.8254 49.3453 19.8868 49.2533 19.9287 49.1521C19.9706 49.0509 19.9921 48.9424 19.992 48.8329V44.6777C19.9921 44.5682 19.9706 44.4597 19.9287 44.3585C19.8868 44.2573 19.8254 44.1653 19.7479 44.0879C19.6705 44.0104 19.5785 43.949 19.4773 43.9071C19.3761 43.8652 19.2676 43.8437 19.1581 43.8438ZM18.3241 47.9989H15.8359V45.5117H18.3226L18.3241 47.9989Z" fill="white"/>
<path d="M28.1039 43.8438H23.9487C23.7275 43.8438 23.5154 43.9316 23.359 44.088C23.2026 44.2444 23.1147 44.4565 23.1147 44.6777V48.8329C23.1147 49.0541 23.2026 49.2662 23.359 49.4226C23.5154 49.579 23.7275 49.6669 23.9487 49.6669H28.1039C28.3251 49.6669 28.5372 49.579 28.6936 49.4226C28.85 49.2662 28.9379 49.0541 28.9379 48.8329V44.6777C28.9379 44.4565 28.85 44.2444 28.6936 44.088C28.5372 43.9316 28.3251 43.8438 28.1039 43.8438ZM27.2699 47.9989H24.7813V45.5117H27.2685L27.2699 47.9989Z" fill="white"/>
<path d="M37.0511 43.8438H32.896C32.6748 43.8438 32.4627 43.9316 32.3063 44.088C32.1499 44.2444 32.062 44.4565 32.062 44.6777V48.8329C32.062 49.0541 32.1499 49.2662 32.3063 49.4226C32.4627 49.579 32.6748 49.6669 32.896 49.6669H37.0511C37.1607 49.6669 37.2692 49.6454 37.3704 49.6035C37.4716 49.5616 37.5635 49.5002 37.641 49.4227C37.7185 49.3453 37.7799 49.2533 37.8218 49.1521C37.8637 49.0509 37.8852 48.9424 37.8851 48.8329V44.6777C37.8852 44.5682 37.8637 44.4597 37.8218 44.3585C37.7799 44.2573 37.7185 44.1653 37.641 44.0879C37.5635 44.0104 37.4716 43.949 37.3704 43.9071C37.2692 43.8652 37.1607 43.8437 37.0511 43.8438ZM36.2186 47.9989H33.73V45.5117H36.2186V47.9989Z" fill="white"/>
<path d="M45.9984 43.8438H41.8423C41.7327 43.8437 41.6243 43.8652 41.5231 43.9071C41.4218 43.949 41.3299 44.0104 41.2524 44.0879C41.175 44.1653 41.1135 44.2573 41.0717 44.3585C41.0298 44.4597 41.0082 44.5682 41.0083 44.6777V48.8329C41.0082 48.9424 41.0298 49.0509 41.0717 49.1521C41.1135 49.2533 41.175 49.3453 41.2524 49.4227C41.3299 49.5002 41.4218 49.5616 41.5231 49.6035C41.6243 49.6454 41.7327 49.6669 41.8423 49.6669H45.997C46.1065 49.6669 46.215 49.6454 46.3162 49.6035C46.4174 49.5616 46.5094 49.5002 46.5868 49.4227C46.6643 49.3453 46.7257 49.2533 46.7676 49.1521C46.8095 49.0509 46.831 48.9424 46.8309 48.8329V44.6777C46.8311 44.4568 46.7434 44.2448 46.5873 44.0884C46.4312 43.932 46.2194 43.844 45.9984 43.8438ZM45.1644 47.9989H42.6777V45.5117H45.1644V47.9989Z" fill="white"/>
</svg>
