<svg width="47" height="47" viewBox="0 0 47 47" fill="none" xmlns="http://www.w3.org/2000/svg">
<path fill-rule="evenodd" clip-rule="evenodd" d="M0 23.5C0 10.5213 10.5213 0 23.5 0C36.4786 0 47 10.5213 47 23.5C47 36.4786 36.4786 47 23.5 47C10.5213 47 0 36.4786 0 23.5ZM19.7614 21.3636C19.7614 20.1837 20.7178 19.2273 21.8977 19.2273H25.1023C26.2822 19.2273 27.2386 20.1837 27.2386 21.3636V36.3182C27.2386 37.4981 26.2822 38.4545 25.1023 38.4545H21.8977C20.7178 38.4545 19.7614 37.4981 19.7614 36.3182V21.3636ZM27.7727 12.8182C27.7727 10.4584 25.8598 8.54545 23.5 8.54545C21.1402 8.54545 19.2273 10.4584 19.2273 12.8182C19.2273 15.1779 21.1402 17.0909 23.5 17.0909C25.8598 17.0909 27.7727 15.1779 27.7727 12.8182Z" fill="white"/>
</svg>
