<svg width="81" height="20" viewBox="0 0 81 20" fill="none" xmlns="http://www.w3.org/2000/svg">
<g clip-path="url(#clip0_261_351)">
<path d="M55.7383 13.7192C56.6979 15.6837 57.6568 17.6481 58.6164 19.6133H62.9885C61.458 16.7234 59.9281 13.8342 58.3976 10.9443C57.5111 11.869 56.6247 12.7945 55.7383 13.7192Z" fill="url(#paint0_linear_261_351)"/>
<path d="M62.9813 5.25371H58.3457L53.6222 10.7119V0H49.8027V19.6131H53.6222V15.0599C56.7419 11.7912 59.8616 8.52244 62.9813 5.25371Z" fill="url(#paint1_linear_261_351)"/>
<path d="M30.9258 19.613V10.9154C30.9258 9.1935 30.0218 7.96763 28.6809 7.96763C27.3399 7.96763 26.2609 9.28069 26.2609 11.0327V19.613H22.4708V10.974C22.4708 8.66886 21.8581 8.08487 20.1965 8.08487C18.6806 8.08487 17.8937 9.01911 17.8937 10.8868V19.613H14.1035V5.25358H17.6602V7.35506C18.6228 5.45801 19.9637 4.87402 21.8581 4.87402C23.7525 4.87402 24.745 5.48732 25.8525 7.15063C26.6401 5.57452 27.9225 4.87402 29.7298 4.87402C32.6167 4.87402 34.6282 6.97551 34.6282 9.66025V19.613H30.9251H30.9258Z" fill="white"/>
<path d="M72.5856 19.6101C71.5454 17.4793 70.506 15.3477 69.4659 13.217C68.8671 13.8522 68.2676 14.4875 67.6689 15.1235C67.6689 16.6198 67.6696 18.116 67.6703 19.6123L63.905 19.6137L63.8984 0.279786L67.6637 0.27832L67.6674 10.8378L72.322 5.45582L76.8918 5.45436C75.2836 7.13525 73.6755 8.81615 72.0673 10.4963C73.6769 13.5342 75.2873 16.5721 76.8969 19.6093C75.46 19.6093 74.0232 19.6101 72.5856 19.6108V19.6101Z" fill="white"/>
<path d="M81.0011 7.87C80.9967 7.6641 80.9704 6.91671 80.3936 6.26824C80.3936 6.26824 79.7611 5.55895 78.7678 5.47029C78.434 5.44098 78.0798 5.50693 77.9846 5.52525C77.8551 5.54943 77.7738 5.58387 77.7401 5.59852C77.7196 5.60731 77.6252 5.64835 77.5066 5.73041C77.5066 5.73041 77.4137 5.79489 77.331 5.87183C77.268 5.93192 76.8317 6.38255 76.132 7.11382C75.419 7.85754 73.8819 9.31642 72.7305 10.5232C73.45 12.2693 75.55 15.6055 75.594 15.6722C75.6818 15.8055 75.8824 16.059 75.8992 16.0744C75.9248 16.1001 76.0141 16.2129 76.1261 16.2825C76.2081 16.3338 76.394 16.4789 76.7878 16.5668C77.7614 16.7845 78.5914 16.4122 78.5914 16.4122C79.3637 16.0173 79.6594 15.33 79.7377 15.1395C79.8307 14.9138 80.0166 14.3694 79.8848 13.7121C79.8182 13.3787 79.696 13.1442 79.6279 13.0167C79.2231 12.2569 78.4377 11.6216 77.899 11.2442C77.8638 11.2179 77.8265 11.193 77.7877 11.168C77.7833 11.1651 77.7804 11.1629 77.776 11.1607C77.7738 11.1592 77.7716 11.1578 77.7694 11.1563C77.5967 11.0493 77.4371 10.9871 77.3229 10.9504C77.5447 10.9116 78.0725 10.8097 78.6529 10.6053C79.1609 10.4272 79.7099 10.1708 80.13 9.80882C80.2398 9.71429 80.4389 9.5399 80.6212 9.2534C80.9813 8.6892 81.0055 8.11327 81.0004 7.86927L81.0011 7.87Z" fill="url(#paint2_linear_261_351)"/>
<path d="M6.55131 10.9153C4.65622 10.6523 4.13139 10.2727 4.13139 9.28057C4.13139 8.34633 5.06466 7.79239 6.55131 7.79239C8.27146 7.79239 8.97123 8.63869 9.14617 9.92318C9.15642 9.99572 9.1857 10.1335 9.17692 10.3159C9.16667 10.5248 9.11616 10.6933 9.07444 10.8032C9.51289 10.8325 10.2127 10.9329 10.9871 11.2971C11.7103 11.637 12.211 12.0716 12.5111 12.3756C12.6509 12.01 12.8463 11.3967 12.902 10.6193C13.0564 9.21096 12.8683 7.26335 11.0859 5.99719V5.99865C9.70174 4.93985 7.84325 4.90321 6.37637 4.87317C3.83201 4.82188 2.69817 5.43151 2.45003 5.59345C2.2685 5.71215 1.61924 6.13567 1.22324 6.75557C1.06367 7.00543 0.816258 7.48903 0.6135 7.99682C0.6135 7.99682 0.611304 8.00268 0.60984 8.00781C0.492723 8.36905 0.268006 9.09665 0.46564 9.99425C0.662542 10.8867 1.16834 11.4487 1.46113 11.766C1.67121 11.9932 2.08404 12.3881 2.7011 12.712C3.64828 13.208 4.61523 13.2747 5.55948 13.3392C5.80981 13.3377 6.09602 13.356 6.42102 13.4125C6.42834 13.4132 6.43566 13.4139 6.44298 13.4147V13.4161C6.45981 13.4191 6.47518 13.4213 6.49202 13.4242C8.64916 13.8331 9.34893 14.4456 9.34893 15.6715C9.34893 16.7515 8.70772 17.2769 7.5124 17.2769C5.55948 17.2769 4.10138 15.8466 4.0721 14.154C4.06771 14.0243 4.06405 13.8939 4.05965 13.7642C3.64609 13.7026 3.0605 13.5649 2.42515 13.2388C1.63973 12.8358 1.16175 12.3419 1.02853 12.1998C0.726957 11.8774 0.518343 11.5652 0.379267 11.3278C0.379267 11.3278 0.329492 11.4304 0.266542 11.6165C0.134054 11.9924 -0.00428997 12.5156 0.000101899 13.0989C0.000101899 13.0989 0.000833877 13.1978 0.0147415 13.3648C0.0410927 14.4639 0.407814 15.9008 1.70049 17.3993C1.7283 17.4322 1.75685 17.4645 1.7854 17.4975C1.78979 17.5026 1.79418 17.5077 1.79857 17.5121C1.83664 17.5546 1.8747 17.5971 1.91349 17.6381C1.92008 17.6447 1.92594 17.6513 1.93179 17.6587C4.38978 20.2606 8.11994 19.9924 8.11994 19.9924L8.10969 19.9858C8.16605 19.9888 8.25243 19.9924 8.35856 19.9924C8.77213 19.9932 10.9952 19.9463 12.1736 18.3562C12.7995 17.5121 12.8551 16.6043 12.8954 15.9624C12.9349 15.3205 13.0191 13.9701 12.2578 12.967C10.9769 11.278 7.62073 11.064 6.55058 10.9153H6.55131Z" fill="white"/>
<path d="M42.0986 10.9153C43.9937 10.6523 44.5186 10.2727 44.5186 9.28057C44.5186 8.34633 43.5853 7.79239 42.0986 7.79239C40.3785 7.79239 39.6787 8.63869 39.5038 9.92318C39.4935 9.99572 39.4643 10.1335 39.473 10.3159C39.4833 10.5248 39.5338 10.6933 39.5755 10.8032C39.1371 10.8325 38.4373 10.9329 37.6629 11.2971C36.9397 11.637 36.439 12.0716 36.1389 12.3756C35.9991 12.01 35.8036 11.3967 35.748 10.6193C35.5936 9.21096 35.7817 7.26335 37.564 5.99719V5.99865C38.9482 4.93985 40.8067 4.90321 42.2736 4.87317C44.8179 4.82188 45.9518 5.43151 46.1999 5.59345C46.3815 5.71215 47.0307 6.13567 47.4267 6.75557C47.5863 7.00543 47.8337 7.48903 48.0365 7.99682C48.0365 7.99682 48.0387 8.00268 48.0401 8.00781C48.1572 8.36905 48.382 9.09665 48.1843 9.99425C47.9874 10.8867 47.4816 11.4487 47.1888 11.766C46.9787 11.9932 46.5659 12.3881 45.9489 12.712C45.0017 13.208 44.0347 13.2747 43.0905 13.3392C42.8401 13.3377 42.5539 13.356 42.2289 13.4125C42.2216 13.4132 42.2143 13.4139 42.207 13.4147V13.4161C42.1901 13.4191 42.1748 13.4213 42.1579 13.4242C40.0008 13.8331 39.301 14.4456 39.301 15.6715C39.301 16.7515 39.9422 17.2769 41.1376 17.2769C43.0905 17.2769 44.5486 15.8466 44.5779 14.154C44.5822 14.0243 44.5859 13.8939 44.5903 13.7642C45.0039 13.7026 45.5895 13.5649 46.2248 13.2388C47.0102 12.8358 47.4882 12.3419 47.6214 12.1998C47.923 11.8774 48.1316 11.5652 48.2707 11.3278C48.2707 11.3278 48.3205 11.4304 48.3834 11.6165C48.5174 11.991 48.6557 12.5141 48.6513 13.0974C48.6513 13.0974 48.6506 13.1963 48.6367 13.3634C48.6103 14.4625 48.2436 15.8994 46.9509 17.3978C46.9231 17.4308 46.8946 17.463 46.866 17.496C46.8616 17.5011 46.8572 17.5063 46.8528 17.5106C46.8148 17.5531 46.7767 17.5956 46.7379 17.6367C46.7313 17.6433 46.7255 17.6499 46.7196 17.6572C44.2616 20.2591 40.5315 19.991 40.5315 19.991L40.5417 19.9844C40.4854 19.9873 40.399 19.991 40.2929 19.991C39.8793 19.9917 37.6563 19.9448 36.4778 18.3548C35.8519 17.5106 35.7963 16.6028 35.7561 15.9609C35.7165 15.319 35.6323 13.9686 36.3936 12.9655C37.6746 11.2765 41.0307 11.0626 42.1008 10.9138L42.0986 10.9153Z" fill="white"/>
</g>
<defs>
<linearGradient id="paint0_linear_261_351" x1="59.363" y1="10.9443" x2="59.363" y2="19.6133" gradientUnits="userSpaceOnUse">
<stop stop-color="#F17981"/>
<stop offset="1" stop-color="#CA4BA8"/>
</linearGradient>
<linearGradient id="paint1_linear_261_351" x1="56.392" y1="0" x2="56.392" y2="19.6131" gradientUnits="userSpaceOnUse">
<stop stop-color="#F17981"/>
<stop offset="1" stop-color="#CA4BA8"/>
</linearGradient>
<linearGradient id="paint2_linear_261_351" x1="76.8661" y1="5.46297" x2="76.8661" y2="16.6357" gradientUnits="userSpaceOnUse">
<stop stop-color="#F17981"/>
<stop offset="1" stop-color="#CA4BA8"/>
</linearGradient>
<clipPath id="clip0_261_351">
<rect width="81" height="20" fill="white"/>
</clipPath>
</defs>
</svg>
